<?xml version="1.0" standalone="no"?>
<!DOCTYPE svg PUBLIC "-//W3C//DTD SVG 20010904//EN"
 "http://www.w3.org/TR/2001/REC-SVG-20010904/DTD/svg10.dtd">
<svg version="1.0" xmlns="http://www.w3.org/2000/svg"
 width="300.000000pt" height="300.000000pt" viewBox="0 0 300.000000 300.000000"
 preserveAspectRatio="xMidYMid meet">

<g transform="translate(0.000000,300.000000) scale(0.100000,-0.100000)"
fill="#000000" stroke="none">
<path d="M0 2670 l0 -330 1500 0 1500 0 0 330 0 330 -1500 0 -1500 0 0 -330z"/>
<path d="M200 1629 c-50 -83 -90 -155 -88 -159 2 -4 43 -73 93 -154 126 -206
103 -216 316 148 93 160 167 296 165 303 -4 10 -49 13 -200 13 l-195 0 -91
-151z m255 41 c11 -17 -147 -280 -168 -280 -35 0 -26 29 50 158 74 126 99 152
118 122z"/>
<path d="M737 1743 c-183 -309 -325 -559 -321 -565 3 -4 94 -8 203 -8 l198 0
87 144 c47 80 86 150 86 156 0 18 -81 150 -89 146 -4 -3 -54 -84 -111 -181
-72 -122 -108 -175 -119 -173 -9 2 -17 11 -19 19 -2 9 47 101 107 204 61 102
111 189 111 192 0 4 -14 28 -31 55 -40 62 -70 65 -102 11z"/>
<path d="M1060 1619 l0 -111 81 4 c77 3 82 5 110 36 20 22 29 43 29 67 0 81
-46 115 -154 115 l-66 0 0 -111z m149 68 c49 -24 45 -113 -5 -136 -14 -6 -45
-11 -69 -11 l-45 0 0 80 0 80 48 0 c26 0 58 -6 71 -13z"/>
<path d="M1374 1720 c-53 -21 -82 -108 -54 -161 20 -36 77 -55 154 -51 40 3
96 61 96 100 0 48 -17 80 -52 102 -35 21 -105 26 -144 10z m130 -41 c33 -26
37 -88 6 -119 -24 -24 -105 -28 -137 -5 -43 30 -37 110 10 133 37 18 92 14
121 -9z"/>
<path d="M1610 1641 c0 -85 1 -91 26 -110 41 -32 136 -30 169 4 23 22 25 32
25 110 0 77 -2 86 -17 83 -15 -3 -18 -16 -21 -83 -2 -43 -8 -85 -14 -92 -6 -7
-31 -13 -58 -13 -68 0 -80 18 -80 113 0 62 -3 77 -15 77 -12 0 -15 -17 -15
-89z"/>
<path d="M1880 1620 l0 -110 93 0 c80 0 96 3 115 20 26 24 28 47 7 78 -12 16
-13 27 -6 40 14 27 2 62 -26 73 -13 5 -60 9 -104 9 l-79 0 0 -110z m170 65
c26 -31 5 -45 -70 -45 l-70 0 0 30 0 30 64 0 c44 0 67 -5 76 -15z m13 -97 c20
-32 -8 -48 -84 -48 l-69 0 0 35 0 36 71 -3 c54 -2 75 -7 82 -20z"/>
<path d="M2144 1717 c-3 -8 -3 -56 -2 -108 l3 -94 88 -3 c73 -2 87 0 87 13 0
12 -14 15 -70 15 l-70 0 0 95 c0 79 -3 95 -15 95 -9 0 -18 -6 -21 -13z"/>
<path d="M2340 1620 l0 -110 105 0 c85 0 105 3 105 15 0 11 -19 15 -87 17
l-88 3 0 30 0 30 83 3 c63 2 82 6 82 17 0 11 -19 15 -82 17 -81 3 -83 4 -83
28 0 24 2 25 83 28 64 2 82 6 82 17 0 12 -19 15 -100 15 l-100 0 0 -110z"/>
<path d="M2696 1633 c25 -54 48 -104 51 -110 3 -7 13 -13 23 -13 14 0 32 29
69 106 28 59 51 108 51 110 0 2 -8 4 -18 4 -14 0 -30 -24 -59 -87 l-41 -88
-41 88 c-31 65 -47 87 -61 87 -17 0 -14 -11 26 -97z"/>
<path d="M2735 1421 c-59 -26 -58 -84 3 -100 20 -6 51 -11 68 -11 17 0 38 -7
45 -16 11 -14 10 -19 -11 -36 -19 -16 -33 -18 -65 -13 -22 3 -44 10 -50 16
-12 12 -45 12 -45 -1 0 -41 150 -61 190 -25 24 22 26 67 4 86 -9 7 -43 16 -76
20 -70 8 -86 19 -63 43 20 20 71 21 106 2 36 -18 56 -5 29 19 -22 20 -103 30
-135 16z"/>
<path d="M1050 1320 c0 -93 1 -100 20 -100 17 0 20 7 20 40 l0 40 68 0 c76 0
102 16 102 62 0 45 -27 58 -123 58 l-87 0 0 -100z m165 40 c0 -24 -3 -25 -62
-28 l-63 -3 0 31 0 31 63 -3 c59 -3 62 -4 62 -28z"/>
<path d="M1297 1325 c-26 -52 -47 -97 -47 -100 0 -16 32 -1 42 20 10 23 17 25
70 25 53 0 60 -2 70 -25 6 -14 19 -25 30 -25 10 0 18 2 18 5 0 3 -21 48 -47
100 -37 74 -52 95 -68 95 -16 0 -31 -21 -68 -95z m103 -17 c0 -5 -18 -8 -40
-8 l-40 0 21 42 21 42 19 -35 c10 -18 18 -37 19 -41z"/>
<path d="M1500 1320 c0 -93 1 -100 20 -100 17 0 20 7 20 40 l0 40 45 0 c39 0
47 -4 76 -40 22 -28 40 -40 58 -40 25 0 25 0 -12 38 -43 44 -44 48 -17 55 27
7 36 51 16 82 -16 24 -21 25 -111 25 l-95 0 0 -100z m175 40 c0 -24 -3 -25
-67 -28 l-68 -3 0 31 0 31 68 -3 c64 -3 67 -4 67 -28z"/>
<path d="M1740 1405 c0 -11 11 -15 40 -15 l40 0 0 -85 c0 -69 3 -85 15 -85 12
0 15 16 15 85 l0 85 40 0 c29 0 40 4 40 15 0 12 -17 15 -95 15 -78 0 -95 -3
-95 -15z"/>
<path d="M1960 1320 c0 -82 3 -100 15 -100 12 0 15 15 15 77 l0 78 78 -78 c42
-42 83 -77 90 -77 9 0 12 28 12 100 0 82 -3 100 -15 100 -12 0 -15 -15 -15
-77 l-1 -78 -72 78 c-98 106 -107 104 -107 -23z"/>
<path d="M2220 1320 l0 -100 95 0 c78 0 95 3 95 15 0 12 -16 15 -80 15 l-80 0
0 30 0 30 75 0 c60 0 75 3 75 15 0 12 -15 15 -75 15 -73 0 -75 1 -75 25 0 23
3 24 77 27 50 2 78 7 81 16 3 9 -20 12 -92 12 l-96 0 0 -100z"/>
<path d="M2440 1320 c0 -80 3 -100 14 -100 10 0 16 13 18 38 3 36 4 37 49 40
44 3 48 1 79 -38 17 -22 40 -40 51 -40 26 0 24 9 -12 46 l-31 32 26 25 c30 30
32 44 10 75 -14 20 -23 22 -110 22 l-94 0 0 -100z m175 40 c0 -24 -3 -25 -72
-28 l-73 -3 0 31 0 31 73 -3 c69 -3 72 -4 72 -28z"/>
<path d="M0 325 l0 -325 1500 0 1500 0 0 325 0 325 -1500 0 -1500 0 0 -325z"/>
</g>
</svg>
